<svg width="405" height="386" viewBox="0 0 405 386" fill="primary" xmlns="http://www.w3.org/2000/svg">
<path d="M19.1102 359.797C15.6819 359.797 13.9678 358.082 13.9678 354.654V268.207C13.9678 264.825 15.6819 263.134 19.1102 263.134C22.4921 263.134 24.1831 264.825 24.1831 268.207V271.473C26.5458 268.693 29.6034 266.608 33.3559 265.219C37.1085 263.829 41.5328 263.134 46.6288 263.134H51.9102C60.9441 263.134 67.6153 265.288 71.9237 269.597C76.2322 273.905 78.3864 280.576 78.3864 289.61V305.454C78.3864 314.488 76.2322 321.182 71.9237 325.537C67.6153 329.846 60.9441 332 51.9102 332H24.1831V354.654C24.1831 358.082 22.4921 359.797 19.1102 359.797ZM24.1831 321.785H51.9102C58.1644 321.785 62.4266 320.627 64.6966 318.31C67.013 315.994 68.1712 311.708 68.1712 305.454V289.61C68.1712 283.356 67.013 279.094 64.6966 276.824C62.4266 274.507 58.1644 273.349 51.9102 273.349H46.6288C40.2819 273.349 35.0469 274.206 30.9237 275.92C26.8006 277.588 24.5537 280.229 24.1831 283.842V321.785ZM124.397 332C116.8 332 111.171 330.17 107.511 326.51C103.851 322.85 102.021 317.221 102.021 309.624C102.021 302.026 103.828 296.397 107.441 292.737C111.101 289.077 116.753 287.247 124.397 287.247H154.487C154.302 281.966 153.005 278.329 150.596 276.337C148.187 274.345 144.087 273.349 138.296 273.349H130.235C125.185 273.349 121.432 273.766 118.977 274.6C116.568 275.434 114.947 276.893 114.113 278.978C113.464 280.646 112.746 281.827 111.958 282.522C111.217 283.171 110.059 283.495 108.484 283.495C106.77 283.495 105.426 283.032 104.453 282.105C103.527 281.132 103.249 279.858 103.619 278.283C104.731 273.048 107.465 269.226 111.819 266.817C116.174 264.362 122.313 263.134 130.235 263.134H138.296C147.33 263.134 154.001 265.288 158.309 269.597C162.618 273.905 164.772 280.576 164.772 289.61V326.858C164.772 330.286 163.081 332 159.699 332C156.271 332 154.557 330.286 154.557 326.858V322.48C149.785 328.827 142.326 332 132.18 332H124.397ZM124.397 321.785H132.18C135.933 321.785 139.384 321.414 142.535 320.673C145.685 319.932 148.326 318.634 150.457 316.781C152.588 314.928 153.954 312.334 154.557 308.998V297.463H124.397C119.626 297.463 116.406 298.32 114.738 300.034C113.07 301.702 112.236 304.898 112.236 309.624C112.236 314.395 113.07 317.615 114.738 319.283C116.406 320.951 119.626 321.785 124.397 321.785ZM211.722 332C204.819 332 199.7 330.332 196.365 326.997C193.029 323.615 191.361 318.472 191.361 311.569V239.715C191.361 236.333 193.075 234.642 196.504 234.642C199.885 234.642 201.576 236.333 201.576 239.715V311.569C201.576 315.6 202.248 318.31 203.592 319.7C204.982 321.09 207.692 321.785 211.722 321.785C215.197 321.785 216.934 323.476 216.934 326.858C217.027 330.286 215.289 332 211.722 332ZM257.055 332C250.152 332 245.033 330.332 241.697 326.997C238.361 323.615 236.694 318.472 236.694 311.569V239.715C236.694 236.333 238.408 234.642 241.836 234.642C245.218 234.642 246.909 236.333 246.909 239.715V311.569C246.909 315.6 247.581 318.31 248.924 319.7C250.314 321.09 253.024 321.785 257.055 321.785C260.529 321.785 262.266 323.476 262.266 326.858C262.359 330.286 260.622 332 257.055 332ZM286.677 301.702V305.593C286.677 311.755 287.836 315.994 290.152 318.31C292.468 320.627 296.754 321.785 303.008 321.785H314.405C319.501 321.785 323.23 321.252 325.593 320.186C328.002 319.075 329.554 317.152 330.249 314.419C330.619 312.89 331.198 311.708 331.986 310.875C332.82 310.041 334.048 309.624 335.669 309.624C337.383 309.624 338.68 310.087 339.561 311.014C340.441 311.894 340.742 313.191 340.464 314.905C339.584 320.696 336.966 325.005 332.611 327.831C328.303 330.61 322.234 332 314.405 332H303.008C293.974 332 287.28 329.846 282.925 325.537C278.616 321.229 276.462 314.581 276.462 305.593V289.61C276.462 280.437 278.616 273.72 282.925 269.458C287.28 265.149 293.974 263.041 303.008 263.134H314.405C323.439 263.134 330.11 265.288 334.418 269.597C338.727 273.859 340.881 280.53 340.881 289.61V296.559C340.881 299.988 339.19 301.702 335.808 301.702H286.677ZM303.008 273.349C296.754 273.256 292.468 274.368 290.152 276.685C287.836 279.001 286.677 283.31 286.677 289.61V291.486H330.666V289.61C330.666 283.356 329.507 279.094 327.191 276.824C324.921 274.507 320.659 273.349 314.405 273.349H303.008ZM391.959 332C383.018 332 376.44 329.892 372.224 325.676C368.008 321.46 365.9 314.905 365.9 306.01V273.349H358.603C355.175 273.349 353.461 271.635 353.461 268.207C353.461 264.825 355.175 263.134 358.603 263.134H365.9V251.39C365.9 247.962 367.591 246.247 370.973 246.247C374.401 246.247 376.115 247.962 376.115 251.39V263.134H392.585C395.967 263.134 397.658 264.825 397.658 268.207C397.658 271.635 395.967 273.349 392.585 273.349H376.115V306.01C376.115 312.125 377.227 316.295 379.451 318.519C381.721 320.696 385.89 321.785 391.959 321.785C393.627 321.785 394.901 322.202 395.781 323.036C396.662 323.823 397.102 325.097 397.102 326.858C397.102 330.286 395.388 332 391.959 332Z" fill="black"/>
<path d="M185.5 140.353L301.5 73.3526L326.619 88.2771L211.5 155.353L185.5 140.353Z" fill="primary"/>
<path d="M148 118.353L264 51.5584L289.119 66.483L173.5 133.353L148 118.353Z" fill="black"/>
<path d="M110.5 96.8528L227 29.5584L252.119 44.483L136.5 111.853L110.5 96.8528Z" fill="black"/>
<path d="M73.5 75.3528L189 8.55843L214.119 23.483L99 90.3528L73.5 75.3528Z" fill="black"/>
<path d="M73 87.8528L102.5 104.853V135.353L73.5 118.353L73 87.8528Z" fill="black"/>
<path d="M167.5 143.353L210.5 168.853L211 198.853L167.5 173.353V143.353Z" fill="black"/>
<path d="M246 147.853L210.5 168.853L210.902 198.853L247 178.353L246 147.853Z" fill="black"/>
<path d="M330.5 98.8528L294 119.853V150.353L330.5 129.268V98.8528Z" fill="black"/>
<path d="M294 119.853L246 147.853L246.5 163.853L294 136.042V119.853Z" fill="black"/>
<path d="M101.5 104.353L167.5 143.353V158.853L102 119.853L101.5 104.353Z" fill="black"/>
</svg>
