<svg width="258" height="199" viewBox="0 0 258 199" fill="none" xmlns="http://www.w3.org/2000/svg">
<path d="M112.5 140.353L228.5 73.3529L253.619 88.2774L138.5 155.353L112.5 140.353Z" fill="black"/>
<path d="M75 118.353L191 51.5584L216.119 66.483L100.5 133.353L75 118.353Z" fill="black"/>
<path d="M37.5 96.8528L154 29.5584L179.119 44.483L63.5 111.853L37.5 96.8528Z" fill="black"/>
<path d="M0.5 75.3528L116 8.55843L141.119 23.483L26 90.3528L0.5 75.3528Z" fill="black"/>
<path d="M0 87.8528L29.5 104.853V135.353L0.5 118.353L0 87.8528Z" fill="black"/>
<path d="M94.5 143.353L137.5 168.853L138 198.853L94.5 173.353V143.353Z" fill="black"/>
<path d="M173 147.853L137.5 168.853L137.902 198.853L174 178.353L173 147.853Z" fill="black"/>
<path d="M257.5 98.8528L221 119.853V150.353L257.5 129.268V98.8528Z" fill="black"/>
<path d="M221 119.853L173 147.853L173.5 163.853L221 136.042V119.853Z" fill="black"/>
<path d="M28.5 104.353L94.5 143.353V158.853L29 119.853L28.5 104.353Z" fill="black"/>
</svg>
